<svg width="17" height="17" viewBox="0 0 17 17" fill="none" xmlns="http://www.w3.org/2000/svg">
<path d="M9.40704 1.32003C9.47132 1.07992 9.62832 0.875159 9.84354 0.750778C10.0587 0.626397 10.3146 0.592576 10.5547 0.656752C11.7667 0.972504 12.8726 1.60586 13.7582 2.4915C14.6439 3.37714 15.2772 4.483 15.593 5.69503C15.6277 5.81485 15.6382 5.9404 15.6238 6.06431C15.6093 6.18823 15.5703 6.30802 15.509 6.41667C15.4477 6.52532 15.3654 6.62064 15.2668 6.69705C15.1681 6.77347 15.0553 6.82943 14.9348 6.86166C14.8143 6.8939 14.6885 6.90175 14.5649 6.88477C14.4413 6.8678 14.3224 6.82632 14.215 6.76278C14.1077 6.69924 14.0141 6.61491 13.9397 6.51474C13.8654 6.41457 13.8118 6.30056 13.782 6.17941C13.5492 5.2866 13.0825 4.47203 12.4301 3.8196C11.7777 3.16718 10.9631 2.70052 10.0703 2.46769C9.8302 2.40341 9.62544 2.2464 9.50106 2.03119C9.37668 1.81598 9.34286 1.56018 9.40704 1.32003ZM16.2383 12.1544C16.0893 13.2885 15.5326 14.3296 14.6722 15.0832C13.8117 15.8368 12.7063 16.2515 11.5625 16.2497C5.18672 16.2497 5.65943e-06 11.063 5.65943e-06 4.68722C-0.00176688 3.54339 0.412886 2.43803 1.16652 1.57758C1.92015 0.717122 2.96123 0.160419 4.09532 0.0114399C4.42947 -0.0291645 4.76782 0.0389537 5.06022 0.205702C5.35263 0.372451 5.58355 0.628958 5.71876 0.937221L7.36797 4.61925C7.36973 4.62408 7.37182 4.62878 7.37422 4.63331C7.47558 4.87021 7.51678 5.12848 7.49415 5.38515C7.47152 5.64182 7.38577 5.8889 7.24454 6.10441C7.22444 6.13581 7.20225 6.16582 7.17813 6.19425L5.68907 7.96847C6.24063 8.9716 7.29063 10.0122 8.30547 10.563L10.0484 9.07863C10.0764 9.05521 10.1056 9.0333 10.1359 9.013C10.3522 8.86789 10.6014 8.7794 10.8608 8.75565C11.1201 8.7319 11.3813 8.77365 11.6203 8.87707L11.6344 8.88332L15.3125 10.531C15.6207 10.6663 15.8771 10.8972 16.0439 11.1896C16.2106 11.482 16.2788 11.8203 16.2383 12.1544ZM14.3391 12.1497L11.0578 10.6802L9.30547 12.17C9.27793 12.1939 9.24897 12.2161 9.21876 12.2364C8.9935 12.3858 8.73336 12.4742 8.46374 12.4929C8.19412 12.5117 7.92424 12.4602 7.68047 12.3435C6.1586 11.6091 4.64219 10.1028 3.90626 8.59347C3.78922 8.3508 3.73693 8.08198 3.75445 7.81313C3.77197 7.54428 3.85872 7.28453 4.00626 7.0591C4.02662 7.02768 4.04907 6.99767 4.07344 6.96925L5.57032 5.19425L4.10001 1.913C3.46829 2.05221 2.90318 2.40326 2.49846 2.90788C2.09374 3.41251 1.87375 4.04035 1.87501 4.68722C1.87811 7.25555 2.89975 9.71781 4.71583 11.5339C6.53192 13.35 8.99417 14.3716 11.5625 14.3747C12.2098 14.3765 12.8382 14.1568 13.3433 13.752C13.8484 13.3472 14.1998 12.7818 14.3391 12.1497ZM9.18985 5.42706C9.57323 5.54791 9.92183 5.75942 10.2061 6.04366C10.4903 6.3279 10.7018 6.67649 10.8227 7.05988C10.8825 7.25009 11.0014 7.41628 11.1621 7.5343C11.3228 7.65231 11.517 7.71601 11.7164 7.71613C11.812 7.71601 11.9071 7.70153 11.9984 7.67316C12.2347 7.59841 12.4317 7.43319 12.5465 7.2136C12.6613 6.99401 12.6844 6.73791 12.6109 6.50128C12.3995 5.83001 12.0293 5.21966 11.5316 4.72201C11.034 4.22436 10.4236 3.85412 9.75235 3.64269C9.63421 3.60305 9.50935 3.58736 9.38508 3.59653C9.2608 3.60571 9.1396 3.63957 9.02857 3.69613C8.91753 3.75269 8.81889 3.83082 8.7384 3.92596C8.65791 4.02109 8.5972 4.13131 8.55981 4.25019C8.52242 4.36906 8.5091 4.49419 8.52063 4.61827C8.53217 4.74235 8.56832 4.86288 8.62699 4.97282C8.68565 5.08276 8.76564 5.17991 8.86229 5.25857C8.95893 5.33724 9.07029 5.39585 9.18985 5.43097V5.42706Z" fill="white"/>
</svg>
